<svg xmlns="http://www.w3.org/2000/svg" width="947.049" height="518.932"><path d="M297.822 259.98c-.197-134.939.104-126.117-4.625-135.984-5.324-11.11-20.597-19.207-42.359-22.457-7.52-1.123-27.73-.921-35.698.357-24.46 3.923-43.432 12.827-58.068 27.252-7.257 7.153-9.753 11.41-10.901 18.6-.424 2.65-.657 28.56-.66 73.085l-.006 68.98H91.732V54.302H144.873v16.416c0 9.03.174 16.417.387 16.417.213 0 1.707-1.09 3.321-2.42 10.295-8.49 30.506-18.585 48.712-24.334 24.439-7.716 56.513-9.391 85.795-4.481 37.125 6.225 59.776 23.226 67.102 50.366 2.313 8.569 2.796 16.577 3.396 56.321.598 39.644.7 40.67 4.855 48.293 3.984 7.307 12.006 13.705 20.97 16.723 14.39 4.845 54.048 8.164 80.319 6.722 29.665-1.628 44.755-5.798 52.947-14.629 7.17-7.73 10.595-17.723 11.839-34.541.796-10.78.429-33.003-.688-41.62-2.938-22.667-12.546-34.486-31.324-38.532-3.614-.778-13.215-1.035-52.192-1.397-43.425-.403-48.08-.546-51.243-1.573-16.695-5.42-28.269-20.66-32.567-42.883-.718-3.713-.706-4.355.085-4.658 1.676-.642 139.39.338 147.107 1.046 18.86 1.732 35.653 9.286 47.971 21.58 5.77 5.759 9.707 11.45 13.605 19.661 7.058 14.871 9.906 29.834 11.129 58.464 1.772 41.482-4.098 75.138-16.078 92.192-7.418 10.56-19.32 20.531-30.696 25.716-10.361 4.723-23.405 7.725-39.335 9.054-33.834 2.823-103.792.15-116.07-4.434-6.671-2.492-14.487-8.679-19.4-15.359l-1.81-2.463v120.788H297.998zM0 172.373V54.932H53.141v234.882H.001zm607.326-.323V54.287l26.412.165 26.413.164.16 117.599.16 117.599H607.325zM.429 32.42C.193 32.184 0 24.793 0 15.996V0h53.162l-.168 16.259-.169 16.258-25.984.165c-14.29.09-26.176-.028-26.412-.263zm606.264-15.996V0h53.162l-.168 16.259-.169 16.258-26.412.165-26.412.165z" fill="#292e30"/><path d="M0 358.321v-22.415h257.48v44.83H0z" fill="#00889d"/><path d="M523.007 518.363c-5.001-1.257-8.363-4.013-10.374-8.505-.964-2.155-1.163-4.822-1.348-18.153l-.216-15.627h12.034l.2 15.206.199 15.207 2.066 1.841c2.522 2.248 6.1 2.498 8.524.595 2.456-1.928 3.011-5.585 3.011-19.825v-12.935l5.696-.202 5.695-.203v15.158c0 8.337-.28 16.125-.62 17.308-1.01 3.52-3.654 6.711-7.114 8.59-2.805 1.524-4.083 1.793-9.305 1.957-3.33.104-7.13-.081-8.447-.412zm38.01 0c-1.634-.275-3.219-.652-3.52-.838-.474-.293.091-9.065.618-9.592.108-.107 1.758.344 3.668 1.002 4.353 1.5 11.168 1.631 13.138.254 3.392-2.371.727-5.995-5.83-7.927-8.842-2.606-11.787-5.493-12.26-12.023-.66-9.09 5.678-13.813 18.49-13.779 4.981.013 10.223.67 10.766 1.35.093.118.034 2.158-.128 4.534-.296 4.297-.306 4.319-1.96 3.913-.914-.224-4.006-.57-6.872-.769-4.209-.291-5.515-.161-6.8.68-3.557 2.325-1.215 5.052 6.234 7.26 8.44 2.5 11.262 5.328 11.668 11.69.142 2.22-.075 5.039-.48 6.266-1.02 3.086-4.983 6.464-8.968 7.645-3.534 1.047-12.52 1.216-17.763.334zM391.6 497.229v-21.152h11.387v42.304H391.6zm22.142 0v-21.152h14.545l6.928 13.733 6.928 13.733.034-13.733.035-13.733h10.754v42.304l-7.433-.026-7.434-.026-1.413-2.973c-.778-1.635-3.938-7.904-7.024-13.93l-5.61-10.957.311 13.956.311 13.956h-10.93V497.23zm48.713 0v-21.152h10.965c12.65 0 16.907.676 21.433 3.406 4.543 2.74 7.137 6.742 8.116 12.518 1.797 10.609-1.907 19.602-9.61 23.331-5.077 2.458-9.045 3.049-20.497 3.049h-10.407zm23.233 10.767c1.123-.582 2.688-1.964 3.48-3.071 1.24-1.737 1.439-2.796 1.439-7.696 0-4.988-.186-5.943-1.52-7.809-2.078-2.908-5.792-4.473-10.659-4.49l-3.953-.014v24.791l4.586-.327c2.523-.18 5.505-.803 6.627-1.384zm118.476-6.348v-16.732h-10.122v-8.84h32.264v8.84h-10.122v33.465h-12.02zm28.468-4.42v-21.151h12.529c12.173 0 12.62.046 15.777 1.616 2.562 1.274 3.542 2.22 4.635 4.472 2.395 4.937.728 11.788-3.376 13.87-2.734 1.388-2.745 1.406-1.508 2.309.793.578 8.003 18.448 8.003 19.834 0 .111-2.775.197-6.168.19l-6.168-.012-2.105-6.693c-2.384-7.58-4.018-9.699-7.477-9.699h-2.122v16.417h-12.02zm20.877-5.366c.699-.698 1.265-2.105 1.265-3.143 0-2.488-2.258-3.94-6.7-4.307l-3.422-.284v8.996h3.796c2.952 0 4.077-.28 5.061-1.262zm22.775 5.367v-21.152h11.387v42.304h-11.387zm21.51 0v-21.152h30.366v8.208h-18.347v8.208h17.081v8.84h-17.08v8.84h18.979v8.208h-31zm39.222 0v-21.152h12.02v33.532l8.542-.192 8.542-.192v9.156h-29.101v-21.152zm35.919 0l-.175-21.153h12.336v33.465h17.081v8.84H773.108zm35.569 0v-21.152h30.366v8.208h-18.346v8.208h17.771l-.187 4.262-.187 4.262-8.698.176-8.699.176v8.804h18.979v8.208H808.503zM701.272 448.67c-4.37-1.077-6.67-2.394-9.343-5.347-4.33-4.784-5.873-9.973-5.368-18.054.551-8.822 3.783-14.237 10.452-17.514 3.772-1.854 4.675-2.035 10.209-2.056 7.207-.028 11.297 1.172 15.116 4.434 8.356 7.14 9.06 25.526 1.274 33.286-3.056 3.045-5.06 4.138-9.512 5.186-4.716 1.11-8.516 1.129-12.828.066zm11.056-9.708c2.78-2.018 4.443-6.169 4.443-11.09 0-5.714-.957-8.707-3.603-11.267-1.845-1.784-2.61-2.09-5.242-2.09-6.108 0-9.183 4.337-9.177 12.944.007 4.538.248 5.806 1.583 8.208 2.701 4.86 7.878 6.282 11.996 3.295zm-321.414 9.702c-.145-.144-.185-9.842-.09-21.55l.176-21.288 11.845.325c17.407.477 22.627 2.53 26.513 10.43 1.642 3.335 1.78 4.182 1.768 10.878-.012 6.639-.158 7.538-1.709 10.494-2.908 5.541-8.45 9.043-16.309 10.304-3.928.63-21.644.955-22.194.407zm22.887-10.502c3.668-1.868 5.317-5.09 5.317-10.387 0-8.244-3.655-12.03-12.314-12.755l-4.45-.372v25.602l4.552-.448c2.504-.246 5.607-.984 6.895-1.64zm26.3 10.344c-.232-.232-.422-9.892-.422-21.468v-21.047h30.366v8.84h-18.346v8.208h17.08v8.208H451.7v8.84H470.57l.211 4.16c.117 2.287.094 4.276-.054 4.419-.447.443-30.181.287-30.63-.16zm60.31-21.035v-21.48H511.8v34.096h17.771l-.187 4.262-.187 4.262-14.392.17-14.392.17zm32.654 20.942c-.175-.283 1.954-6.463 4.732-13.733 2.778-7.27 6.361-16.7 7.963-20.954l2.913-7.735h14.18l2.898 7.735c1.593 4.254 5.051 13.222 7.684 19.93 2.633 6.707 4.96 12.887 5.173 13.733l.387 1.538h-12.62l-1.35-3.696c-.743-2.032-1.35-4.03-1.35-4.438 0-.54-2.189-.695-8.014-.567l-8.014.177-1.563 4.262-1.563 4.262h-5.569c-3.063 0-5.712-.232-5.887-.514zm25.72-22.375a1564.07 1564.07 0 0 1-2.383-7.709l-.76-2.5-2.55 7.71-2.552 7.708h9.869zm47.088 22.49c-.245-.244-.445-9.95-.445-21.57V405.83l10.597.308c14.518.423 18.743 2.05 21.321 8.208 1.254 2.996 1.254 8.077 0 11.081-2.358 5.639-7.406 8.346-15.564 8.346h-4.294l-.178 7.419-.178 7.419-5.407.18c-2.974.1-5.608-.019-5.852-.263zm18.376-24.22c1.823-1.109 2.056-1.568 2.056-4.055 0-3.622-2.023-5.422-6.095-5.422h-2.762v10.734l2.372-.004c1.305 0 3.298-.566 4.43-1.254zm21.035 3.094v-21.525l12.494.224c11.078.2 12.824.376 15.399 1.556 4.016 1.84 5.952 5.057 5.887 9.783-.06 4.349-1.629 7.3-4.84 9.098-2.094 1.173-2.199 1.355-1.151 2.008 1.087.678 6.62 14.506 7.438 18.594l.368 1.836-5.935-.182-5.937-.183-1.926-5.8c-1.06-3.189-2.341-6.571-2.847-7.516-.943-1.76-3.986-3.416-6.277-3.416-1.23 0-1.286.376-1.286 8.524v8.524h-11.387zm20.84-5.278c.717-.646 1.302-1.94 1.302-2.873 0-2.703-2.03-4.013-6.678-4.308l-4.077-.26v9.135l4.077-.26c2.809-.178 4.48-.624 5.377-1.434zm70.546 26.008c-.168-.437-.23-10.026-.138-21.31l.168-20.515 10.122.031c10.68.034 13.84.571 17.46 2.972 5.968 3.959 6.75 14.854 1.456 20.294-2.703 2.779-6.939 4.169-12.703 4.169h-4.632v15.154h-5.713c-4.007 0-5.805-.238-6.02-.795zm18.534-23.823c1.823-1.11 2.056-1.57 2.056-4.056 0-3.622-2.024-5.422-6.095-5.422h-2.762v10.734l2.372-.004c1.305 0 3.298-.566 4.429-1.254zm21.035 3.093v-21.525l12.494.215c11.655.2 12.7.316 15.561 1.722 5.172 2.541 7.294 8.15 5.177 13.684-1.04 2.72-4.304 5.96-6.001 5.96-.44 0-.187.498.564 1.106 1.6 1.295 8.51 19.108 7.719 19.897-.286.285-3.022.435-6.08.334l-5.562-.184-2.356-6.837c-1.296-3.76-2.924-7.405-3.62-8.098-.694-.694-2.443-1.42-3.886-1.612l-2.623-.352v17.215h-11.388zm20.086-4.987c1.57-.956 2.056-1.691 2.056-3.11 0-2.89-2.492-4.474-7.045-4.474h-3.71v8.84l3.321-.004c2.194 0 4.02-.427 5.378-1.254zm23.22 25.717c-.168-.437-.23-10.026-.138-21.31l.167-20.515 5.852-.182 5.852-.181V448.927h-5.714c-4.007 0-5.805-.238-6.019-.795zm21.813.543c-.151-.15-.196-9.816-.1-21.479l.175-21.205h30.391l-.187 4.262-.187 4.262-9.332.175-9.331.175v8.174h17.714v8.208h-17.714V440.054l9.648.174 9.647.175v8.208l-15.225.169c-8.373.093-15.348.046-15.499-.105zm46.857-16.796V414.83h-10.756v-8.861l16.29.168 16.291.169.187 4.262.187 4.262H899.601v34.096h-11.387zm28.257 16.627c-.232-.232-.422-9.892-.422-21.468v-21.047h30.366v8.84H928.07v8.208h17.714v8.208H928.07v8.84h18.979v8.84H931.97c-8.293 0-15.267-.19-15.5-.421zm-65.103-44.14c-.2-.2.61-2.332 1.8-4.736l2.166-4.373h12.116l-4.246 4.736-4.247 4.735h-3.613c-1.986 0-3.776-.163-3.976-.363zm74.901-.12c.12-.291 1.065-2.433 2.1-4.76l1.88-4.229h5.869c3.228 0 5.87.163 5.87.36 0 .2-1.73 2.29-3.845 4.646l-3.843 4.285-4.125.113c-2.269.063-4.026-.125-3.906-.415zm-532.615-25.23l-2.056-.254v-42.224h4.428v21.467c0 11.808-.07 21.423-.158 21.367-.086-.056-1.083-.216-2.214-.356zm57.57-.33c-1.863-.597-2.057-.894-2.057-3.16 0-2.142.16-2.434 1.107-2.03 7.675 3.272 14.625 2.198 16.913-2.615 2.22-4.669.423-7.456-7.708-11.955-6.27-3.469-8.774-5.633-9.972-8.624-2.958-7.377 3.196-14.385 12.629-14.383 2.088 0 4.864.177 6.169.393 2.165.357 2.372.567 2.372 2.413 0 1.112-.147 2.169-.327 2.348-.18.179-1.816-.065-3.637-.544-7.19-1.887-13.117 1.068-13.117 6.54 0 2.084 3.01 4.954 7.954 7.586 8.743 4.652 11.025 7.47 11.025 13.611 0 7.027-5.466 11.26-14.386 11.143-2.7-.036-5.835-.361-6.966-.723zm39.697-18.575v-19.108l-6.168-.18-6.168-.181-.199-2.052-.198-2.052h29.894l-.199 2.052-.198 2.052-6.168.18-6.169.181v37.7l-2.214.258-2.214.258zm80.587 17.845c-3.435-1.596-5.932-4.365-7.114-7.89-.462-1.375-.72-7.786-.72-17.837v-15.691h4.428v14.743c0 9.348.263 15.53.72 16.89 2.918 8.694 15.4 9.898 19.499 1.88 1.195-2.338 1.29-3.668 1.29-18.019v-15.494h5.061v15.053c0 16.369-.4 19.061-3.421 23.015-3.679 4.814-13.14 6.42-19.743 3.35zm44.832 1.004l-2.056-.198v-37.759l-6.168-.18-6.168-.181-.199-2.052-.198-2.052h29.894l-.198 2.052-.198 2.052-6.16.18-6.159.181-.167 19.077-.167 19.077zm130.797-18.872v-19.13H734.485v-4.42h29.814l-.199 2.052-.198 2.052-6.168.18-6.168.181v37.7l-2.215.258-2.214.258zm26.096 18.928l-2.057-.254v-42.224h4.429v21.467c0 11.808-.071 21.423-.158 21.367-.087-.056-1.083-.216-2.214-.356zm25.143-.097c-8.354-2.725-12.649-10.093-12.649-21.698 0-8.87 3.337-15.72 9.391-19.271 2.68-1.572 3.57-2.098 9.324-2.098 5.566 0 6.578.553 8.804 1.893 3.365 2.025 5.68 4.684 7.742 8.895 1.546 3.157 1.7 4.134 1.7 10.734 0 6.116-.233 7.845-1.473 10.964-1.564 3.937-4.96 7.83-8.41 9.638-2.25 1.55-11.639 2.198-14.43.943zm9.736-4.01c1.485-.444 3.723-1.893 5.208-3.373 3.383-3.37 4.833-7.672 4.804-14.25-.047-11.094-7.045-18.623-15.98-17.197-8.054 1.285-13.505 11.8-11.399 21.986 1.39 6.718 4.517 10.982 9.303 12.685 3.076 1.094 4.787 1.126 8.064.148zm95.68-1.09l-2.163-5.396h-21.26l-2.054 5.052c-1.997 4.914-2.116 5.056-4.357 5.25-2.845.246-3.513 2.489 6.644-22.298l8.02-19.574h5.505l8.082 20.205c4.444 11.113 8.096 20.53 8.114 20.925.018.396-.957.836-2.167.977l-2.2.256zm-4.191-10.38c0-.136-1.105-3.049-2.455-6.472a2422.51 2422.51 0 0 1-4.229-10.796l-1.773-4.574-3.999 9.94c-2.2 5.468-4.158 10.438-4.354 11.046-.328 1.016.338 1.105 8.227 1.105 4.72 0 8.583-.112 8.583-.249zm-492.187-5.784v-21.187l2.985.193 2.984.192 4.186 7.262a6428.024 6428.024 0 0 0 9.14 15.785c2.723 4.688 5.404 9.376 5.956 10.418.94 1.775 1.013.771 1.17-15.943l.169-17.837h5.041v42.304l-3.321-.026-3.321-.024-10.123-17.647-10.122-17.647-.168 17.672-.168 17.672h-4.408zm107.547.035v-21.152h5.061v42.304h-5.06zm24.04 2.21v-18.942h-12.02v-4.42h29.1v4.42h-12.019v37.884h-5.061zm118.302-2.21v-21.152h6.034l4.992 8.682c2.746 4.775 6.276 10.812 7.843 13.417 1.569 2.605 3.702 6.298 4.743 8.208 3.807 6.99 3.591 7.722 3.591-12.172v-18.135h4.429v42.304h-6.122l-10.067-17.353-10.066-17.352-.168 17.352-.168 17.353h-5.04V357.69zm39.225 20.678c0-.26 3.793-9.708 8.427-20.994l8.425-20.52 2.96-.193c1.743-.113 2.961.076 2.961.46 0 .651 13.713 35.761 15.493 39.669l.935 2.052h-2.837c-1.592 0-2.836-.296-2.836-.675 0-.372-.884-2.794-1.963-5.382l-1.964-4.707-10.47.173-10.472.173-2.177 5.209c-2.123 5.078-2.231 5.209-4.33 5.209-1.185 0-2.153-.213-2.152-.474zm27.728-15.22l-4.277-11.043c-2.236-5.776-4.12-10.434-4.186-10.351-.229.287-8.512 21.344-8.512 21.639 0 .162 3.867.295 8.593.295s8.498-.243 8.382-.54zm108.286-5.458v-21.152h6.048l4.144 7.103c2.279 3.907 6.967 11.99 10.419 17.963l6.276 10.86.168-17.963.168-17.963H864.175v42.304h-6.051l-8.5-14.68c-4.675-8.074-9.293-15.944-10.26-17.488l-1.76-2.807V378.842h-5.06zm85.405 0v-21.152h5.06v38.515h17.082V378.842h-22.142z" fill="#292e30"/></svg>